<?xml version="1.0" encoding="UTF-8" standalone="no"?>
<!-- Created with Inkscape (http://www.inkscape.org/) -->

<svg
   xmlns:dc="http://purl.org/dc/elements/1.1/"
   xmlns:cc="http://creativecommons.org/ns#"
   xmlns:rdf="http://www.w3.org/1999/02/22-rdf-syntax-ns#"
   xmlns:svg="http://www.w3.org/2000/svg"
   xmlns="http://www.w3.org/2000/svg"
   xmlns:sodipodi="http://sodipodi.sourceforge.net/DTD/sodipodi-0.dtd"
   xmlns:inkscape="http://www.inkscape.org/namespaces/inkscape"
   width="247.74695mm"
   height="169.50259mm"
   viewBox="0 0 877.84352 600.59974"
   id="svg2"
   version="1.1"
   inkscape:version="0.92.4 (5da689c313, 2019-01-14)"
   sodipodi:docname="Runner Leaving Blocks.svg"
   inkscape:export-filename="/home/algot/Documents/runeman.org/clipart/silhouette-runner-blocks.png"
   inkscape:export-xdpi="61.519459"
   inkscape:export-ydpi="61.519459">
  <title
     id="title3397">Runner Leaving Blocks</title>
  <defs
     id="defs4" />
  <sodipodi:namedview
     id="base"
     pagecolor="#ffffff"
     bordercolor="#666666"
     borderopacity="1.0"
     inkscape:pageopacity="0.0"
     inkscape:pageshadow="2"
     inkscape:zoom="0.38554688"
     inkscape:cx="646.94311"
     inkscape:cy="540.54004"
     inkscape:document-units="px"
     inkscape:current-layer="layer1"
     showgrid="false"
     fit-margin-top="0"
     fit-margin-left="0"
     fit-margin-right="0"
     fit-margin-bottom="0"
     inkscape:window-width="1306"
     inkscape:window-height="889"
     inkscape:window-x="-8"
     inkscape:window-y="-8"
     inkscape:window-maximized="1"
     inkscape:snap-global="false">
    <inkscape:grid
       type="xygrid"
       id="grid3376" />
  </sodipodi:namedview>
  <metadata
     id="metadata7">
    <rdf:RDF>
      <cc:Work
         rdf:about="">
        <dc:format>image/svg+xml</dc:format>
        <dc:type
           rdf:resource="http://purl.org/dc/dcmitype/StillImage" />
        <dc:title>Runner Leaving Blocks</dc:title>
        <dc:date>2016-09-05</dc:date>
        <dc:creator>
          <cc:Agent>
            <dc:title>Algot Runeman</dc:title>
          </cc:Agent>
        </dc:creator>
        <dc:rights>
          <cc:Agent>
            <dc:title>Algot Runeman</dc:title>
          </cc:Agent>
        </dc:rights>
        <dc:publisher>
          <cc:Agent>
            <dc:title>runeman.org</dc:title>
          </cc:Agent>
        </dc:publisher>
        <dc:identifier>silhouette-runner-blocks.svg</dc:identifier>
        <cc:license
           rdf:resource="http://creativecommons.org/publicdomain/zero/1.0/" />
      </cc:Work>
      <cc:License
         rdf:about="http://creativecommons.org/publicdomain/zero/1.0/">
        <cc:permits
           rdf:resource="http://creativecommons.org/ns#Reproduction" />
        <cc:permits
           rdf:resource="http://creativecommons.org/ns#Distribution" />
        <cc:permits
           rdf:resource="http://creativecommons.org/ns#DerivativeWorks" />
      </cc:License>
    </rdf:RDF>
  </metadata>
  <g
     inkscape:label="Layer 1"
     inkscape:groupmode="layer"
     id="layer1"
     transform="translate(18.656029,-576.771)">
    <path
       style="fill:#000000;fill-rule:evenodd;stroke:#000000;stroke-width:0.49018744px;stroke-linecap:butt;stroke-linejoin:miter;stroke-opacity:1"
       d="m -120.65324,1440.7837 -1.27141,-20.3426 -190.71121,6.3571 v 17.7997 z"
       id="path3347"
       inkscape:connector-curvature="0"
       sodipodi:nodetypes="ccccc" />
    <path
       style="fill:#000000;fill-rule:evenodd;stroke:#000000;stroke-width:0.49018744px;stroke-linecap:butt;stroke-linejoin:miter;stroke-opacity:1"
       d="m -185.49505,1424.2554 -25.42817,-36.8708 -8.89985,-6.3571 -15.2569,17.7997 -7.62845,43.2279 h 68.65604 z"
       id="path3349"
       inkscape:connector-curvature="0"
       sodipodi:nodetypes="ccccccc" />
    <path
       style="fill:#000000;fill-rule:evenodd;stroke:#000000;stroke-width:0.49018744px;stroke-linecap:butt;stroke-linejoin:miter;stroke-opacity:1"
       d="m -193.1235,1411.5413 7.62845,-34.328 v -22.8854 l -2.54282,-15.2569 3.81422,-12.714 5.08563,-3.8143 15.2569,-5.0856 17.79972,-1.2714 20.34253,45.7707 -10.17127,7.6284 -5.08563,12.7141 -16.52831,34.328 v 19.0712 c -5.13503,7.3495 -13.0546,2.1687 -20.47031,-0.7448 z"
       id="path3351"
       inkscape:connector-curvature="0"
       sodipodi:nodetypes="ccccccccccccccc" />
    <path
       style="fill:#000000;fill-rule:evenodd;stroke:#000000;stroke-width:0.49018744px;stroke-linecap:butt;stroke-linejoin:miter;stroke-opacity:1"
       d="m 88.934549,674.37313 -9.23897,7.18045 -24.15676,16.5283 -30.51379,20.34254 c 0,0 -15.1390104,10.68671 -23.4891104,14.58924 -4.67976,2.18715 -14.7170296,4.85426 -14.7170296,4.85426 l -10.03025,3.14658 -7.70557,7.92371 c 0,0 -11.19503,8.41729 -17.79971,10.17126 -2.45763,0.65266 -7.62845,0 -7.62845,0 l -16.52831,8.89986 -16.5283,13.98544 -19.071119,13.9855 -30.5138,15.2569 -21.61394,16.5283 -20.34253,12.7141 -8.89986,10.1713 -16.5283,13.9855 -12.71408,-43.2279 c 0,0 16.00948,-8.4814 26.69957,-20.21 6.20961,-6.8128 17.79971,-19.2037 17.79971,-19.2037 l 10.17127,-11.44262 14.28075,-14.51213 8.6046,-13.45885 5.08563,-3.81423 17.79971,-8.89985 17.79972,-10.17127 26.699559,-11.44267 19.07113,-15.2569 22.88535,-29.24238 10.17126,-11.44268 19.0711196,-15.2569 33.0566104,-19.07112"
       id="path3353"
       inkscape:connector-curvature="0" />
    <path
       style="fill:#4d4d4d;fill-rule:evenodd;stroke:#000000;stroke-width:0.49018744px;stroke-linecap:butt;stroke-linejoin:miter;stroke-opacity:1"
       d="m 490.13363,1036.2532 -23.88451,-59.7952 -13.20311,-34.21381 -2.20777,-49.79614 c 16.00818,-37.92215 42.99757,-43.02429 79.94537,-11.67776 l 15.42803,30.74404 7.10103,40.795 c 0,0 6.68781,17.6987 7.39754,27.00499 0.80753,10.58972 -3.66086,31.65048 -3.66086,31.65048 l -0.24291,9.165 -4.06706,23.5389 c -12.23424,27.38 -34.06859,21.5693 -62.60572,-7.4155 z"
       id="path868"
       inkscape:connector-curvature="0"
       sodipodi:nodetypes="cccccccscccc"
       inkscape:transform-center-x="-11.012333"
       inkscape:transform-center-y="66.808078"
       inkscape:export-xdpi="61.519459"
       inkscape:export-ydpi="61.519459" />
    <path
       style="fill:#4d4d4d;fill-rule:evenodd;stroke:#000000;stroke-width:0.49018744px;stroke-linecap:butt;stroke-linejoin:miter;stroke-opacity:1"
       d="m 507.04956,1226.992 3.22534,-23.909 5.1372,-28.5337 8.87867,-20.3803 10.01198,-22.0735 6.89398,-22.3062 4.98578,-20.5692 3.60673,-19.4052 2.02176,-13.119 3.71636,-13.7204 -3.17124,-16.9998 -11.58893,-11.1505 -15.46966,-5.9573 -13.94811,0.3896 c -16.35557,0.4569 -28.28203,37.3459 -31.48976,73.2553 0,0 -2.75654,16.3299 -3.86238,23.9841 -1.00308,6.943 -0.75199,14.0545 -0.16297,21.0448 0.30611,3.6329 1.70963,7.1284 1.91378,10.7684 0.51104,9.1147 -1.74786,27.3313 -1.74786,27.3313 l -6.06549,39.357 -5.30126,20.0066 c 13.87115,24.8614 29.95116,28.3661 42.41643,1.9871 z"
       id="path860"
       inkscape:connector-curvature="0"
       sodipodi:nodetypes="cccccccccccccscccccccc"
       inkscape:transform-center-x="10.683371"
       inkscape:transform-center-y="88.953029"
       inkscape:export-xdpi="61.519459"
       inkscape:export-ydpi="61.519459" />
    <path
       style="fill:#000000;fill-rule:evenodd;stroke:#000000;stroke-width:0.49018744px;stroke-linecap:butt;stroke-linejoin:miter;stroke-opacity:1"
       d="m 460.6435,1221.4296 -6.80517,-3.4471 0.5152,10.2375 -0.11863,22.7433 1.0898,9.1032 13.06557,2.3426 10.79709,1.1934 c 0,0 11.2984,-5.096 17.35823,-5.7905 7.63776,-0.8756 22.96222,2.1585 22.96222,2.1585 l 29.61826,3.428 26.2053,-9.5295 2.87256,-5.6709 -3.94753,-6.2752 c 0,0 -2.96029,-5.4181 -5.55334,-6.7429 -6.4535,-3.2961 -21.69718,-1.3596 -21.69718,-1.3596 l -17.01301,-8.6176 -14.15528,-11.4458 -7.92463,-6.8646 z"
       id="path872"
       inkscape:connector-curvature="0"
       sodipodi:nodetypes="ccccccccccccccccccc"
       inkscape:transform-center-x="-36.51362"
       inkscape:transform-center-y="19.058053"
       inkscape:export-xdpi="61.519459"
       inkscape:export-ydpi="61.519459" />
    <path
       style="fill:#000000;fill-rule:evenodd;stroke:#000000;stroke-width:0.49018744px;stroke-linecap:butt;stroke-linejoin:miter;stroke-opacity:1"
       d="m 109.19705,730.57602 17.63291,-103.75877 33.05661,15.25689 21.61394,24.79246"
       id="path3355"
       inkscape:connector-curvature="0" />
    <g
       id="g894"
       transform="rotate(-9.3040861,683.57813,846.3316)"
       inkscape:export-xdpi="61.519459"
       inkscape:export-ydpi="61.519459">
      <path
         sodipodi:nodetypes="ccccccccccc"
         inkscape:connector-curvature="0"
         id="path864"
         d="m 416.62912,883.40265 -15.89504,-22.53587 -4.69379,-15.22352 -2.0321,-17.95548 2.47435,-17.11508 5.25316,-10.8576 15.92338,-19.98757 96.66358,3.4903 -3.06125,31.04231 -3.76651,29.59332 -23.97704,30.26529"
         style="fill:#000000;fill-rule:evenodd;stroke:#000000;stroke-width:0.49018744px;stroke-linecap:butt;stroke-linejoin:miter;stroke-opacity:1" />
      <path
         sodipodi:nodetypes="cccccccccccccccccccc"
         inkscape:connector-curvature="0"
         id="path3357"
         d="m 513.36647,787.03881 1.94089,-22.75529 2.612,-18.22954 12.25735,-25.33441 6.1638,-9.97036 5.99986,-22.5556 10.69391,-15.6873 10.74132,-23.88888 3.63812,-21.19878 2.56873,-25.89849 C 550.30291,586.41401 528.97093,572.5931 489.00476,573.26544 l -49.33422,32.64952 2.94275,18.84271 -6.95735,18.07258 -2.47434,17.11509 -3.24448,27.01519 -3.22107,28.81308 -5.78907,38.73661 -6.72316,36.05149 z"
         style="fill:#000000;fill-rule:evenodd;stroke:#000000;stroke-width:0.49018744px;stroke-linecap:butt;stroke-linejoin:miter;stroke-opacity:1" />
      <path
         inkscape:transform-center-y="47.612759"
         inkscape:transform-center-x="-82.876632"
         sodipodi:nodetypes="ccccccsccccccsccccccccccccccccsscccccccscccc"
         inkscape:connector-curvature="0"
         id="path3359"
         d="m 546.48942,646.73974 -2.01024,14.64036 9.18505,31.55488 7.2511,18.74943 5.46358,26.1655 14.9651,19.30094 c 0,0 7.91747,7.65909 12.70234,6.98517 6.40585,-0.9022 13.76107,-13.68475 13.76107,-13.68475 l 17.12685,-16.79696 18.02061,-20.50496 14.65484,-17.39279 7.28309,-13.93836 9.50152,-6.86455 c 0,0 13.29483,-1.91212 19.36341,-5.79529 3.27432,-2.09517 8.9452,-8.64937 8.9452,-8.64937 l 12.16945,-12.41765 c 0.33838,-3.32588 -1.90607,-3.91058 -4.92447,-3.6739 l 12.84773,-7.49451 2.72562,-5.88213 c -0.79323,-5.84227 -6.75686,1.32005 -10.38183,2.60016 l -9.89522,2.71747 10.68688,-8.93702 10.39529,-10.57258 c 1.17428,-3.4113 -0.8613,-3.41598 -2.99546,-3.31603 l -21.09751,14.6814 12.28438,-22.05858 c 0.6154,-4.13822 -1.33687,-4.55295 -5.55497,-1.68186 -3.52676,4.81784 -8.70194,13.78176 -10.57956,14.45162 l -3.27692,1.67545 -8.85817,4.63978 c 0,0 -8.42047,1.47844 -11.45015,4.18699 -4.78819,4.28071 -5.99944,13.16911 -8.59497,17.24494 -3.41463,5.36211 -6.72951,14.22213 -6.72951,14.22213 l -5.53988,1.28033 -22.3245,22.08324 -12.86729,9.97673 -9.2036,5.62852 -3.96162,5.58421 -4.34819,-3.6637 c 0,0 2.27014,-15.84787 0.41854,-23.43988 -1.35098,-5.53931 -8.14487,-15.0414 -8.14487,-15.0414 l 2.33904,-15.13005 c -0.97607,-20.94568 -14.54633,-35.59427 -29.03135,-49.78548 -16.41763,8.22684 -28.84267,19.72035 -20.32041,48.35255 z"
         style="fill:#000000;fill-rule:evenodd;stroke:#000000;stroke-width:0.49018744px;stroke-linecap:butt;stroke-linejoin:miter;stroke-opacity:1" />
      <path
         inkscape:transform-center-y="95.032856"
         inkscape:transform-center-x="60.578663"
         sodipodi:nodetypes="cccccscccccccccccsccccccccsccccccccccscccccccsccccccccccccc"
         inkscape:connector-curvature="0"
         id="path3363"
         d="m 495.55143,572.04307 -40.36344,-2.24909 -13.55752,4.80654 -8.41957,5.84654 -14.75915,1.41716 c 0,0 -8.04191,0.37789 -11.91672,1.36328 -6.68618,1.70037 -19.18853,7.75676 -19.18853,7.75676 l -25.91341,13.00247 -18.64159,6.609 -4.92243,10.32978 -5.90853,18.31019 -7.00241,20.6057 -2.6269,11.42365 -3.06609,18.2563 -0.062,26.72975 0.21554,11.36978 -2.6808,8.58121 c 0,0 -4.83166,-0.37818 -5.3468,1.67727 l -5.04499,20.13006 -8.91262,9.83674 -11.20813,8.74286 -2.18775,4.59102 5.19184,3.88243 19.6277,-14.5894 2.84245,-0.0539 -17.77136,22.51591 c 0,0 -2.39993,7.20374 -0.0616,9.17517 1.96813,1.65936 7.60285,-1.35642 7.60285,-1.35642 l 18.91912,-21.96897 1.14776,0.54694 0.64658,34.10933 4.04408,3.3355 4.48326,-3.49714 3.45137,-27.9314 -0.49304,3.9902 4.25959,14.70528 3.99659,11.43609 c 0,0 4.17904,1.38562 5.62748,0.19196 2.04574,-1.68588 1.25266,-7.85338 1.25266,-7.85338 l -0.81633,-13.06448 -4.3135,-17.54771 4.92242,-10.32979 4.69878,7.87263 4.69878,7.87264 5.73877,2.73468 c 0,0 8.47558,1.87522 10.29136,-1.0565 1.53362,-2.47613 -3.07342,-8.17941 -3.07342,-8.17941 l -6.33959,-4.42937 -6.60901,-18.6416 -11.58529,-11.15425 4.33096,-25.77678 6.19054,-21.31964 7.04245,-16.36146 9.52443,-23.62904 6.3282,-15.87679 13.56603,1.41441 37.99177,-5.83842 44.16972,-9.93638 z"
         style="fill:#000000;fill-rule:evenodd;stroke:#000000;stroke-width:0.49018744px;stroke-linecap:butt;stroke-linejoin:miter;stroke-opacity:1" />
    </g>
    <path
       style="fill:#333333;fill-rule:evenodd;stroke:#000000;stroke-width:0.49018744px;stroke-linecap:butt;stroke-linejoin:miter;stroke-opacity:1"
       d="m 483.42389,596.3545 c 0,0 28.72143,-1.33778 29.39085,-14.12535 0.1193,-2.27913 -2.66289,-6.30769 -2.66289,-6.30769 0,0 6.09088,-1.89298 6.31745,-4.4609 0.11173,-1.26648 -2.6824,-2.71165 -2.6824,-2.71165 0,0 2.36564,-1.45899 2.71166,-2.6824 0.67255,-2.37788 -1.75899,-7.20182 -1.75899,-7.20182 0,0 5.37244,1.59996 7.19206,0.039 1.60833,-1.37967 1.39067,-4.21915 0.93315,-6.28817 -0.93316,-4.22001 -7.13353,-10.82712 -7.13353,-10.82712 l -2.65313,-8.1057 c 0,0 2.94449,-6.46316 2.75068,-9.87446 -0.3125,-5.50057 -6.21014,-15.31729 -6.21014,-15.31729 l 1.81754,-3.58627 7.20181,-1.75899 -6.23941,-9.92324 c 0,0 -8.46428,-7.43253 -13.43145,-9.96225 -7.26419,-3.69956 -15.19014,-6.98251 -23.3352,-7.31889 -7.98947,-0.32995 -15.66314,3.26025 -23.40347,5.26724 -6.05707,1.57053 -12.30528,2.72405 -18.00943,5.29649 -3.56182,1.6063 -7.20364,3.43395 -9.92322,6.23941 -4.57934,4.72392 -8.39214,10.64324 -9.98178,17.0275 -1.52226,6.1136 0.83077,12.58386 0.79658,18.88404 -0.0342,6.30019 -2.01163,12.65553 -1.00143,18.87428 1.03503,6.37167 7.09451,18.01918 7.09451,18.01918 l 8.92179,12.6349 1.07148,17.45706 c 11.85066,30.99453 30.27985,27.21103 50.97774,11.43384 z"
       id="path3361"
       inkscape:connector-curvature="0"
       sodipodi:nodetypes="cscscscssccsccccssssssssccccc"
       inkscape:transform-center-x="-9.4463679"
       inkscape:transform-center-y="-55.976422"
       inkscape:export-xdpi="61.519459"
       inkscape:export-ydpi="61.519459" />
    <path
       inkscape:transform-center-y="58.825055"
       inkscape:transform-center-x="29.65972"
       sodipodi:nodetypes="cccccccscccc"
       inkscape:connector-curvature="0"
       id="path874"
       d="m 340.83088,998.46294 22.1208,-60.46987 13.00212,-34.29076 31.58998,-38.55644 c 37.2306,-17.55659 64.04154,-19.37409 74.93642,49.68656 l -13.85208,28.91191 -24.72359,34.37176 c 0,0 -6.83179,17.64365 -12.51433,25.0476 -6.46625,8.4251 -23.84983,21.1267 -23.84983,21.1267 l -6.29767,6.6631 -18.73866,14.815 c -27.38428,12.2246 -39.76616,-6.6749 -41.67316,-47.30556 z"
       style="fill:#333333;fill-opacity:1;fill-rule:evenodd;stroke:#000000;stroke-width:0.49018744px;stroke-linecap:butt;stroke-linejoin:miter;stroke-opacity:1" />
    <path
       inkscape:transform-center-y="45.930241"
       inkscape:transform-center-x="73.512806"
       sodipodi:nodetypes="cccccccccccccscccccccc"
       inkscape:connector-curvature="0"
       id="path876"
       d="m 214.64847,1144.3202 19.60995,-14.0532 24.28642,-15.8346 20.92001,-7.519 22.92966,-7.8559 20.96012,-10.2842 18.38729,-10.4813 16.59438,-10.6864 10.93297,-7.5277 12.53291,-6.707 10.19476,-13.9685 0.16443,-16.0813 -6.27635,-15.343 -9.8511,-9.88215 c -11.55138,-11.58788 -46.57483,5.03735 -74.90491,27.33495 0,0 -13.77337,9.1955 -20.10155,13.6411 -5.74024,4.0326 -10.7427,9.0934 -15.42525,14.3169 -2.43346,2.7147 -4.01433,6.1337 -6.52298,8.7791 -6.28181,6.624 -21.08663,17.4757 -21.08663,17.4757 l -32.799,22.5829 -18.19428,9.8658 c -8.57583,27.1469 -0.0962,41.2518 27.64915,32.2278 z"
       style="fill:#333333;fill-opacity:1;fill-rule:evenodd;stroke:#000000;stroke-width:0.49018744px;stroke-linecap:butt;stroke-linejoin:miter;stroke-opacity:1" />
    <path
       inkscape:transform-center-y="40.217653"
       inkscape:transform-center-x="13.607073"
       sodipodi:nodetypes="ccccccccccccccccccc"
       inkscape:connector-curvature="0"
       id="path878"
       d="m 189.19051,1112.8977 0.045,-7.6283 -8.92971,5.0331 -20.40211,10.0512 -7.65824,5.0406 3.73924,12.7364 3.75428,10.1935 c 0,0 9.60543,7.8331 12.93324,12.9448 4.19445,6.4427 8.3238,21.509 8.3238,21.509 l 10.16055,28.0314 20.22984,19.1907 6.35687,0.037 3.85159,-6.3346 c 0,0 3.52568,-5.0684 3.55287,-7.9801 0.0669,-7.2462 -8.47358,-20.0204 -8.47358,-20.0204 l 0.11232,-19.0707 3.91905,-17.7769 2.60271,-10.1562 z"
       style="fill:#000000;fill-rule:evenodd;stroke:#000000;stroke-width:0.49018744px;stroke-linecap:butt;stroke-linejoin:miter;stroke-opacity:1" />
    <path
       sodipodi:type="star"
       style="opacity:1;fill:#f4f516;fill-opacity:1;stroke:#000000;stroke-width:3.75;stroke-linecap:butt;stroke-linejoin:round;stroke-miterlimit:4;stroke-dasharray:none;stroke-dashoffset:0;stroke-opacity:1"
       id="path834"
       sodipodi:sides="5"
       sodipodi:cx="236.66312"
       sodipodi:cy="241.20052"
       sodipodi:r1="144.59399"
       sodipodi:r2="74.16153"
       sodipodi:arg1="0.73781506"
       sodipodi:arg2="1.3661336"
       inkscape:flatsided="false"
       inkscape:rounded="0.18"
       inkscape:randomized="0"
       d="m 343.65401,338.46496 c -11.52287,12.67516 -75.14606,-28.13214 -91.91853,-24.6507 -16.77247,3.48145 -58.89879,66.23907 -74.51435,59.19701 -15.61555,-7.04207 3.53385,-80.16146 -4.96018,-95.0372 -8.49402,-14.87574 -81.197817,-35.54708 -79.325889,-52.57448 1.871927,-17.02739 77.330099,-21.41036 88.852969,-34.08552 11.52287,-12.67516 8.71578,-88.20837 25.48824,-91.689812 16.77247,-3.481444 44.25878,66.929132 59.87434,73.971192 15.61555,7.04206 86.58447,-18.96869 95.0785,-4.09295 8.49402,14.87574 -49.97667,62.77484 -51.8486,79.80223 -1.87193,17.02739 44.79637,76.48507 33.2735,89.16023 z"
       inkscape:transform-center-x="8.6774325"
       inkscape:transform-center-y="-4.6698394"
       inkscape:export-xdpi="61.519459"
       inkscape:export-ydpi="61.519459" />
  </g>
</svg>
